<svg width="600" height="1100" viewBox="0 0 600 1100" fill="none" xmlns="http://www.w3.org/2000/svg">
<g clip-path="url(#clip0_55_30)">
<path fill-rule="evenodd" clip-rule="evenodd" d="M375.514 742.355L404.808 1086.82H415.92L381.575 741.345L375.514 742.355Z" fill="url(#paint0_linear_55_30)"/>
<path opacity="0.75" fill-rule="evenodd" clip-rule="evenodd" d="M560.294 278.835C599.954 457.435 492.347 718.305 385.754 744.895C281.944 770.874 70.0136 575.115 30.3536 396.515C-9.30638 217.915 77.2136 46.6053 223.484 14.1253C369.754 -18.3547 520.644 100.233 560.304 278.835H560.294Z" fill="url(#paint1_radial_55_30)"/>
<path fill-rule="evenodd" clip-rule="evenodd" d="M560.294 278.835C599.954 457.435 492.347 718.305 385.754 744.895C281.944 770.874 70.0136 575.115 30.3536 396.515C-9.30638 217.915 77.2136 46.6053 223.484 14.1253C369.754 -18.3547 520.644 100.233 560.304 278.835H560.294Z" fill="url(#paint2_radial_55_30)"/>
<path opacity="0.6" fill-rule="evenodd" clip-rule="evenodd" d="M172.944 63.3933C160.787 63.5171 136.428 83.1563 127.074 94.0663C107.84 116.499 96.2356 131.716 85.2276 156.04C68.3276 193.383 89.8026 195.124 118.075 172.16C139.674 154.616 105.217 207.763 102.263 219.572C97.3287 239.295 77.2986 251.322 67.8576 262.333C58.0096 273.819 60.6115 295.546 40.2696 309.434C18.0716 324.589 58.5246 332.749 70.0156 337.949C88.3766 346.259 59.2556 384.482 97.9036 358.097C120.694 342.538 114.673 326.55 129.824 356.862C134.82 366.859 177.412 319.728 179.414 316.582C181.753 312.907 175.559 259.687 174.774 256.152C174.758 256.08 187.835 237.027 203.597 240.97C228.047 247.087 220.336 269.731 242.334 244.075C253.51 231.04 268.159 294.473 268.668 296.762C275.959 329.594 317.456 291.896 330.957 300.491C345.378 309.671 340.041 339.803 356.671 350.389C369.79 358.74 399.949 320.026 404.091 313.518C417.647 292.222 404.78 290.007 442.209 313.833C468.572 330.615 464.615 281.86 500.471 312.602C522.291 331.311 507.241 292.526 507.604 278.824C508.216 255.702 495.662 221.633 487.472 201.346C482.837 189.865 531.845 217.47 524.039 207.86C509.801 190.331 491.345 175.715 478.181 159.509C461.126 138.512 453.776 124.631 441.622 100.312C431.121 79.3009 435.675 74.9719 419.005 64.3599C401.402 53.1539 385.357 82.2879 374.07 59.7046C366.219 43.9966 336.201 69.127 321.387 59.6966C317.215 57.041 304.731 27.0306 301.559 23.1256C294.577 14.5295 259.017 26.7192 247.325 29.3154L236.168 31.7929C223.372 34.6345 207.557 35.2196 193.711 38.2944C192.704 38.5181 181.165 57.7803 172.944 63.3933Z" fill="url(#paint3_linear_55_30)"/>
<path fill-rule="evenodd" clip-rule="evenodd" d="M342.458 128.189C343.624 133.327 343.763 138.644 342.868 143.836C341.973 149.028 340.061 153.992 337.242 158.443C334.423 162.894 330.753 166.744 326.442 169.772C322.131 172.801 317.264 174.948 312.121 176.09C306.977 177.232 301.659 177.347 296.472 176.428C291.284 175.509 286.329 173.574 281.891 170.734C277.453 167.895 273.62 164.207 270.611 159.882C267.603 155.557 265.479 150.68 264.36 145.532C263.194 140.394 263.055 135.076 263.95 129.884C264.845 124.692 266.757 119.729 269.576 115.278C272.395 110.827 276.066 106.977 280.377 103.948C284.688 100.92 289.555 98.7731 294.698 97.631C299.841 96.4889 305.159 96.374 310.347 97.2931C315.535 98.2121 320.49 100.147 324.928 102.986C329.365 105.826 333.199 109.514 336.207 113.839C339.215 118.164 341.34 123.041 342.458 128.189Z" fill="url(#paint4_radial_55_30)"/>
<path opacity="0.6" fill-rule="evenodd" clip-rule="evenodd" d="M414.977 112.083C418.308 126.762 418.706 141.955 416.148 156.789C413.591 171.622 408.128 185.805 400.074 198.522C392.02 211.238 381.534 222.239 369.216 230.891C356.899 239.543 342.994 245.677 328.299 248.94C313.604 252.204 298.41 252.532 283.588 249.906C268.766 247.28 254.609 241.753 241.93 233.64C229.25 225.528 218.298 214.99 209.703 202.633C201.107 190.276 195.037 176.343 191.842 161.633C188.511 146.954 188.113 131.761 190.67 116.927C193.228 102.093 198.69 87.911 206.744 75.1943C214.798 62.4776 225.285 51.4773 237.602 42.8249C249.92 34.1726 263.825 28.0387 278.52 24.7755C293.214 21.5123 308.409 21.1842 323.231 23.8098C338.052 26.4355 352.21 31.9633 364.889 40.0758C377.568 48.1883 388.52 58.7257 397.116 71.0827C405.711 83.4398 411.781 97.3732 414.977 112.083Z" fill="url(#paint5_radial_55_30)"/>
<path opacity="0.4" fill-rule="evenodd" clip-rule="evenodd" d="M223.474 14.1343C77.2036 46.6143 -9.32639 217.904 30.3336 396.504C69.9936 575.104 281.944 770.874 385.754 744.894C492.354 718.296 599.964 457.414 560.304 278.814C520.644 100.214 369.744 -18.3457 223.474 14.1343ZM218.229 19.4924C223.429 17.8885 229.27 17.0627 235.879 17.2376C255.247 17.7502 268.542 43.7516 273.97 43.8956C294.449 44.4376 304.69 24.5786 319.545 24.9716C338.125 25.4633 340.734 33.6924 352.387 41.1106C363.21 48.0005 376.674 61.3386 391.125 70.5376C402.962 78.0729 423.84 94.5396 438.229 98.1386C451.737 101.518 469.93 109.141 472.927 122.637C479.26 151.153 458.479 144.012 458.028 161.062C457.408 184.487 499.704 177.339 506.068 205.998C512.648 235.627 475.252 247.324 484.049 251.862C484.227 251.953 556.248 313.389 515.044 312.299C491.977 311.688 447.266 277.795 440.346 305.454C437.832 315.505 414.483 366.867 396.33 344.519C357.457 296.661 379.198 352.36 327.535 350.993C310.521 350.542 312.784 331.946 313.281 313.184C315.353 234.893 258.672 301.713 258.122 275.687C256.463 197.166 264.7 265.542 240.475 235.718C225.882 217.751 214.861 198.943 188.412 212.163C147.63 232.546 182.007 241.639 183.462 268.866C184.814 294.183 151.713 290.581 165.786 307.907C170.511 313.724 196.668 361.095 188.102 355.642L177.85 349.115C141.104 325.724 140.813 392.744 112.788 346.021C91.0007 309.697 91.7867 366.878 62.5657 383.519C51.3897 417.029 47.1937 393.29 43.3687 376.066C39.9129 360.504 42.8744 347.46 39.0404 330.195C32.7862 302.031 54.8114 309.165 67.8514 288.681C75.4386 276.762 104.109 258.235 77.1681 251.496C63.0181 247.956 39.6571 258.03 57.3241 241.274C68.6821 230.501 117.082 190.885 94.5311 171.55C81.8331 160.662 44.8731 129.887 86.1565 120.719C123.006 112.536 132.146 111.668 132.956 81.068C133.615 56.151 171.036 70.174 184.417 49.153C192.697 36.145 202.629 24.3044 218.229 19.4924Z" fill="url(#paint6_linear_55_30)"/>
<path opacity="0.53" fill-rule="evenodd" clip-rule="evenodd" d="M403.482 404.742C420.519 430.32 433.829 458.043 442.643 486.314C451.458 514.585 455.604 542.845 454.841 569.464C454.078 596.084 448.423 620.535 438.2 641.41C427.977 662.285 413.389 679.169 395.277 691.09C377.166 703.011 355.889 709.733 332.673 710.867C309.457 712.002 284.762 707.527 260.011 697.701C235.26 687.874 210.943 672.891 188.462 653.615C165.982 634.338 145.782 611.15 129.027 585.387C111.99 559.81 98.6802 532.087 89.8653 503.815C81.0505 475.544 76.9049 447.284 77.6676 420.665C78.4303 394.046 84.0861 369.594 94.3091 348.719C104.532 327.845 119.12 310.96 137.231 299.039C155.343 287.118 176.62 280.397 199.836 279.262C223.052 278.128 247.747 282.603 272.498 292.429C297.249 302.255 321.565 317.238 344.046 336.515C366.527 355.791 386.727 378.979 403.482 404.742Z" fill="url(#paint7_radial_55_30)"/>
<path opacity="0.3" fill-rule="evenodd" clip-rule="evenodd" d="M391.236 506.864C400.786 521.19 408.119 536.803 412.813 552.802C417.507 568.802 419.469 584.871 418.586 600.085C417.703 615.298 413.992 629.354 407.667 641.442C401.342 653.53 392.529 663.411 381.734 670.515C370.94 677.62 358.379 681.807 344.775 682.836C331.171 683.865 316.794 681.715 302.472 676.51C288.15 671.305 274.166 663.148 261.327 652.509C248.489 641.87 237.049 628.96 227.667 614.523C218.117 600.197 210.784 584.585 206.09 568.585C201.396 552.586 199.434 536.516 200.317 521.303C201.2 506.09 204.911 492.034 211.236 479.946C217.561 467.858 226.375 457.977 237.169 450.872C247.963 443.768 260.524 439.58 274.128 438.551C287.732 437.522 302.109 439.673 316.432 444.878C330.754 450.083 344.737 458.24 357.576 468.879C370.415 479.517 381.855 492.427 391.236 506.864Z" fill="url(#paint8_radial_55_30)"/>
<path opacity="0.1" fill-rule="evenodd" clip-rule="evenodd" d="M224.914 643.365C206.579 619.103 163.947 576.686 140.344 542.115C126.977 522.536 117.085 491.502 141.666 492.153C178.934 493.14 174.629 551.736 173.222 485.146C173.132 480.872 202.2 530.073 228.005 489.537C248.496 457.348 255.591 539.205 259.55 557.035C261.09 563.971 295.473 569.761 309.512 558.357C344.808 529.687 316.445 592.73 316.079 606.567C315.188 640.229 389.243 564.96 392.782 560.561C425.743 519.595 443.627 549.855 465.541 515.431C488.547 479.29 513.936 450.049 531.733 422.09C545.833 399.941 508.723 390.863 541.82 374.321C566.88 361.796 563.62 419.883 558.028 428.668C544.39 450.092 519.42 442.843 518.577 474.68C518.05 494.597 517.697 507.997 522.951 531.655C527.643 552.787 502.469 585.112 492.7 600.458C478.872 622.18 489.212 630.686 461.138 644.718C441.882 654.342 439.346 695.011 421.687 690.73C407.965 701.876 385.482 717.809 375.664 725.784C357.301 740.699 336.406 709.668 307.296 716.132C285.323 721.011 261.466 706.643 249.01 695.963C237.012 685.676 228.26 658.436 224.913 643.367L224.914 643.365Z" fill="url(#paint9_linear_55_30)"/>
<path fill-rule="evenodd" clip-rule="evenodd" d="M560.294 278.835C599.954 457.435 492.347 718.305 385.754 744.895C281.944 770.874 70.0136 575.115 30.3536 396.515C-9.30638 217.915 77.2136 46.6053 223.484 14.1253C369.754 -18.3547 520.644 100.233 560.304 278.835H560.294Z" fill="url(#paint10_radial_55_30)"/>
<path opacity="0.3" fill-rule="evenodd" clip-rule="evenodd" d="M419.016 722.755C419.909 726.86 416.163 731.509 408.601 735.677C401.04 739.846 390.283 743.193 378.696 744.983C367.109 746.773 355.642 746.859 346.817 745.221C337.992 743.584 332.533 740.357 331.64 736.252C330.746 732.146 334.492 727.498 342.054 723.329C349.615 719.161 360.372 715.813 371.959 714.023C383.546 712.234 395.013 712.148 403.838 713.786C412.663 715.423 418.122 718.649 419.016 722.755Z" fill="url(#paint11_radial_55_30)"/>
<path fill-rule="evenodd" clip-rule="evenodd" d="M374.504 731.245C368.568 734.895 359.095 748.554 356.321 755.489C354.777 759.348 347.229 760.54 343.189 762.56C335.24 766.535 339.449 773.672 347.229 773.672C357.592 773.672 367.504 773.687 377.534 775.693C385.099 777.206 392.967 776.703 400.768 776.703C408.712 776.703 409.747 771.427 407.839 767.612C406.104 764.14 396.883 759.842 394.707 755.49C392.642 751.358 392.812 737.148 387.636 733.267C387.255 732.981 380.919 727.303 374.504 731.246L374.504 731.245Z" fill="url(#paint12_linear_55_30)"/>
<path fill-rule="evenodd" clip-rule="evenodd" d="M374.504 731.245C368.568 734.895 359.095 748.554 356.321 755.489C354.777 759.348 347.229 760.54 343.189 762.56C335.24 766.535 339.449 773.672 347.229 773.672C357.592 773.672 367.504 773.687 377.534 775.693C385.099 777.206 392.967 776.703 400.768 776.703C408.712 776.703 409.747 771.427 407.839 767.612C406.104 764.14 396.883 759.842 394.707 755.49C392.642 751.358 392.812 737.148 387.636 733.267C387.255 732.981 380.919 727.303 374.504 731.246L374.504 731.245Z" fill="url(#paint13_linear_55_30)"/>
<path opacity="0.46759" fill-rule="evenodd" clip-rule="evenodd" d="M374.504 731.245C368.568 734.895 359.095 748.554 356.321 755.489C354.777 759.348 347.229 760.54 343.189 762.56C335.24 766.535 339.449 773.672 347.229 773.672C357.592 773.672 367.504 773.687 377.534 775.693C385.099 777.206 392.967 776.703 400.768 776.703C408.712 776.703 409.747 771.427 407.839 767.612C406.104 764.14 396.883 759.842 394.707 755.49C392.642 751.358 392.812 737.148 387.636 733.267C387.255 732.981 380.919 727.303 374.504 731.246L374.504 731.245Z" fill="url(#paint14_linear_55_30)"/>
<path opacity="0.50926" fill-rule="evenodd" clip-rule="evenodd" d="M374.504 731.245C368.568 734.895 359.095 748.554 356.321 755.489C354.777 759.348 347.229 760.54 343.189 762.56C335.24 766.535 339.449 773.672 347.229 773.672C357.592 773.672 367.504 773.687 377.534 775.693C385.099 777.206 392.967 776.703 400.768 776.703C408.712 776.703 409.747 771.427 407.839 767.612C406.104 764.14 396.883 759.842 394.707 755.49C392.642 751.358 392.812 737.148 387.636 733.267C387.255 732.981 380.919 727.303 374.504 731.246L374.504 731.245Z" fill="url(#paint15_linear_55_30)"/>
<path opacity="0.67593" fill-rule="evenodd" clip-rule="evenodd" d="M360.354 762.365C363.736 762.803 371.62 762.059 376.93 760.827C381.424 759.785 384.147 759.514 386.875 756.983C390.824 753.32 390.718 756.454 395.992 758.878C398.923 762.006 403.168 760.961 406.139 766.979C409.07 769.698 394.335 766.979 390.191 766.979C385.739 766.979 381.892 766.21 377.759 766.21C374.908 766.21 369.094 765.161 366.984 764.672C363.702 763.911 365.398 763.301 360.354 762.365Z" fill="url(#paint16_radial_55_30)"/>
<path opacity="0.46759" fill-rule="evenodd" clip-rule="evenodd" d="M391.191 739.795C391.973 741.929 392.299 744.132 392.098 745.917C391.897 747.702 391.186 748.924 390.121 749.315C389.055 749.705 387.723 749.231 386.417 747.997C385.11 746.764 383.938 744.871 383.156 742.736C382.374 740.602 382.048 738.399 382.249 736.614C382.45 734.829 383.161 733.607 384.227 733.217C385.292 732.826 386.624 733.3 387.93 734.534C389.237 735.768 390.409 737.66 391.191 739.795Z" fill="url(#paint17_radial_55_30)"/>
<path d="M385.854 741.835C385.538 741.917 385.226 741.657 384.912 741.568C391.943 743.031 385.024 741.42 386.095 740.01C385.807 739.8 385.995 740.108 385.865 740.235L389.878 730.812C391.774 732.032 393.838 732.678 394.957 734.874C399.619 746.813 392.118 755.671 379.5 750.225C370.915 742.324 374.133 732.298 385.854 731.472V741.837L385.854 741.835Z" fill="url(#paint18_radial_55_30)"/>
<path d="M391.574 844.985C411.077 877.588 351.407 877.921 352.775 912.407C354.156 947.25 384.993 932.194 403.557 962.738L404.914 974.826C377.739 936.862 352.07 947.174 350.995 913.106C349.92 879.038 396.607 867.536 392.365 851.286L391.574 844.985Z" fill="url(#paint19_linear_55_30)"/>
<path d="M397.104 996.705C387.817 1010.01 349.323 1023.76 349.474 1008.3C349.833 971.397 404.847 989.414 406.067 1019.58C406.66 1034.26 369.759 1033.57 363.922 1046.49L362.86 1038.01C367.759 1027 402.005 1028.43 400.308 1020.28C394.501 992.369 364.784 993.26 354.114 1001.92C355.399 1017.05 389.045 1002.72 396.729 989.222L397.104 996.704L397.104 996.705Z" fill="url(#paint20_linear_55_30)"/>
<path d="M397.104 996.705C387.817 1010.01 349.323 1023.76 349.474 1008.3L354.115 1001.92C355.4 1017.05 389.045 1002.73 396.729 989.223L397.104 996.705Z" fill="url(#paint21_linear_55_30)"/>
<path d="M385.854 741.835C385.538 741.917 385.226 741.657 384.912 741.568C391.943 743.031 385.024 741.42 386.095 740.01C385.807 739.8 385.995 740.108 385.865 740.235L389.878 730.812C391.774 732.032 393.838 732.678 394.957 734.874C399.619 746.813 392.118 755.671 379.5 750.225C370.915 742.324 374.133 732.298 385.854 731.472V741.837L385.854 741.835Z" fill="url(#paint22_linear_55_30)"/>
<path d="M394.084 732.555C384.333 754.746 381.094 733.998 372.791 735.309C360.048 735.284 340.662 741.617 333.802 751.864C324.397 765.912 320.751 780.732 328.133 799.614C335.563 818.619 359.842 825.326 383.913 838.888L384.224 842.896C365.95 828.59 333.171 827.978 323.006 806.387C312.703 784.504 313.391 766.76 333.168 747.682C343.641 737.939 355.999 730.065 370.662 729.745L394.084 732.555Z" fill="url(#paint23_linear_55_30)"/>
<path opacity="0.63889" d="M394.084 732.555C384.333 754.746 381.094 733.998 372.791 735.309C360.048 735.284 355.999 730.065 370.662 729.745L394.084 732.555Z" fill="url(#paint24_radial_55_30)"/>
</g>
<defs>
<linearGradient id="paint0_linear_55_30" x1="391.003" y1="757.634" x2="544.984" y2="955.69" gradientUnits="userSpaceOnUse">
<stop stop-color="#525252"/>
<stop offset="1" stop-color="#D9D9D9"/>
</linearGradient>
<radialGradient id="paint1_radial_55_30" cx="0" cy="0" r="1" gradientUnits="userSpaceOnUse" gradientTransform="translate(307.246 146.915) rotate(-12.5204) scale(327.654 451.834)">
<stop stop-color="#34ABFF"/>
<stop offset="1" stop-color="#0057FF"/>
</radialGradient>
<radialGradient id="paint2_radial_55_30" cx="0" cy="0" r="1" gradientUnits="userSpaceOnUse" gradientTransform="translate(339.648 218.702) rotate(-12.5203) scale(369.472 509.502)">
<stop stop-color="#00575F" stop-opacity="0"/>
<stop offset="0.5" stop-color="#0062FF" stop-opacity="0"/>
<stop offset="1" stop-color="#002859"/>
</radialGradient>
<linearGradient id="paint3_linear_55_30" x1="244.758" y1="21.9796" x2="287.31" y2="382.466" gradientUnits="userSpaceOnUse">
<stop stop-color="white"/>
<stop offset="1" stop-color="white" stop-opacity="0"/>
</linearGradient>
<radialGradient id="paint4_radial_55_30" cx="0" cy="0" r="1" gradientUnits="userSpaceOnUse" gradientTransform="translate(303.407 136.861) rotate(-12.52) scale(40.0007 40.0007)">
<stop stop-color="white"/>
<stop offset="1" stop-color="white" stop-opacity="0"/>
</radialGradient>
<radialGradient id="paint5_radial_55_30" cx="0" cy="0" r="1" gradientUnits="userSpaceOnUse" gradientTransform="translate(303.403 136.859) rotate(-12.5202) scale(114.286 114.286)">
<stop stop-color="white"/>
<stop offset="1" stop-color="white" stop-opacity="0"/>
</radialGradient>
<linearGradient id="paint6_linear_55_30" x1="-840.417" y1="-220.255" x2="881.594" y2="-62.3609" gradientUnits="userSpaceOnUse">
<stop stop-color="#00575F" stop-opacity="0"/>
<stop offset="0.5" stop-color="#0062FF" stop-opacity="0"/>
<stop offset="1" stop-color="#002859"/>
</linearGradient>
<radialGradient id="paint7_radial_55_30" cx="0" cy="0" r="1" gradientUnits="userSpaceOnUse" gradientTransform="translate(272.552 506.451) rotate(-33.3527) scale(147.36 208.861)">
<stop stop-color="white"/>
<stop offset="1" stop-color="white" stop-opacity="0"/>
</radialGradient>
<radialGradient id="paint8_radial_55_30" cx="0" cy="0" r="1" gradientUnits="userSpaceOnUse" gradientTransform="translate(312.95 567.093) rotate(-33.3525) scale(87.8233 117.012)">
<stop stop-color="white"/>
<stop offset="1" stop-color="white" stop-opacity="0"/>
</radialGradient>
<linearGradient id="paint9_linear_55_30" x1="420.531" y1="819.018" x2="322.632" y2="356.827" gradientUnits="userSpaceOnUse">
<stop stop-color="#34ABFF"/>
<stop offset="1" stop-opacity="0"/>
</linearGradient>
<radialGradient id="paint10_radial_55_30" cx="0" cy="0" r="1" gradientUnits="userSpaceOnUse" gradientTransform="translate(321.506 433.366) rotate(-12.5203) scale(356.617 491.775)">
<stop stop-color="#00F1FF" stop-opacity="0"/>
<stop offset="0.5" stop-color="#00C9FF" stop-opacity="0"/>
<stop offset="0.75" stop-color="#0065A6" stop-opacity="0"/>
<stop offset="1" stop-color="#002454"/>
</radialGradient>
<radialGradient id="paint11_radial_55_30" cx="0" cy="0" r="1" gradientUnits="userSpaceOnUse" gradientTransform="translate(375.318 729.488) rotate(-8.78094) scale(44.2051 15.8128)">
<stop/>
<stop offset="1" stop-opacity="0"/>
</radialGradient>
<linearGradient id="paint12_linear_55_30" x1="378.651" y1="728.955" x2="374.841" y2="776.69" gradientUnits="userSpaceOnUse">
<stop stop-color="#34ABFF"/>
<stop offset="1" stop-color="#0057FF"/>
</linearGradient>
<linearGradient id="paint13_linear_55_30" x1="366.679" y1="777.229" x2="367.817" y2="765.199" gradientUnits="userSpaceOnUse">
<stop/>
<stop offset="1" stop-opacity="0"/>
</linearGradient>
<linearGradient id="paint14_linear_55_30" x1="359.011" y1="729.628" x2="370.817" y2="763.207" gradientUnits="userSpaceOnUse">
<stop/>
<stop offset="1" stop-opacity="0"/>
</linearGradient>
<linearGradient id="paint15_linear_55_30" x1="359.243" y1="747.814" x2="379.366" y2="753.531" gradientUnits="userSpaceOnUse">
<stop/>
<stop offset="1" stop-opacity="0"/>
</linearGradient>
<radialGradient id="paint16_radial_55_30" cx="0" cy="0" r="1" gradientUnits="userSpaceOnUse" gradientTransform="translate(389.815 762.184) scale(22.6252 6.55155)">
<stop stop-color="white"/>
<stop offset="1" stop-color="white" stop-opacity="0"/>
</radialGradient>
<radialGradient id="paint17_radial_55_30" cx="0" cy="0" r="1" gradientUnits="userSpaceOnUse" gradientTransform="translate(387.174 741.265) rotate(-20.1097) scale(4.27824 8.57141)">
<stop stop-color="white"/>
<stop offset="1" stop-color="white" stop-opacity="0"/>
</radialGradient>
<radialGradient id="paint18_radial_55_30" cx="0" cy="0" r="1" gradientUnits="userSpaceOnUse" gradientTransform="translate(378.154 749.875) scale(27.902 27.9021)">
<stop stop-color="#525252"/>
<stop offset="1" stop-color="#D9D9D9"/>
</radialGradient>
<linearGradient id="paint19_linear_55_30" x1="393.796" y1="902.365" x2="370.346" y2="903.04" gradientUnits="userSpaceOnUse">
<stop stop-color="#525252"/>
<stop offset="1" stop-color="#D9D9D9"/>
</linearGradient>
<linearGradient id="paint20_linear_55_30" x1="383.49" y1="1019.82" x2="402.423" y2="1022.6" gradientUnits="userSpaceOnUse">
<stop stop-color="#525252"/>
<stop offset="1" stop-color="#D9D9D9"/>
</linearGradient>
<linearGradient id="paint21_linear_55_30" x1="353.636" y1="993.354" x2="368.538" y2="1010.43" gradientUnits="userSpaceOnUse">
<stop/>
<stop offset="1" stop-opacity="0"/>
</linearGradient>
<linearGradient id="paint22_linear_55_30" x1="378.244" y1="732.075" x2="389.144" y2="739.215" gradientUnits="userSpaceOnUse">
<stop/>
<stop offset="1" stop-opacity="0"/>
</linearGradient>
<linearGradient id="paint23_linear_55_30" x1="350.122" y1="737.362" x2="383.213" y2="773.836" gradientUnits="userSpaceOnUse">
<stop stop-color="#525252"/>
<stop offset="1" stop-color="#D9D9D9"/>
</linearGradient>
<radialGradient id="paint24_radial_55_30" cx="0" cy="0" r="1" gradientUnits="userSpaceOnUse" gradientTransform="translate(393.235 730.691) scale(23.1481 9.26789)">
<stop/>
<stop offset="1" stop-opacity="0"/>
</radialGradient>
<clipPath id="clip0_55_30">
<rect width="600" height="1100" fill="white"/>
</clipPath>
</defs>
</svg>
