<svg width="150" height="150" viewBox="0 0 150 150" fill="none" xmlns="http://www.w3.org/2000/svg">
<g clip-path="url(#clip0_19_4)">
<path d="M109.106 140.403C79.5386 140.403 38.4621 140.403 16.1098 140.403M119.86 140.403H133.339M133.339 140.403H144.387C147.376 140.403 149.708 143.066 148.437 145.773C147.234 148.336 145.163 150.854 141.67 150.854C134.551 150.854 28.378 150.854 13.3835 150.854C4.88806 150.854 1.7407 147.499 0.608345 144.591C-0.283374 142.301 1.86183 140.403 4.31938 140.403C7.10531 140.403 11.1458 140.403 16.1098 140.403M133.339 140.403V111.323M133.339 111.323C133.339 111.323 133.339 100.266 118.951 100.266M133.339 111.323C128.038 111.323 121.373 129.715 114.407 129.498C104.445 129.187 105.319 113.443 94.5658 113.443C83.8122 113.443 85.6297 129.498 75.0275 129.498C64.4254 129.498 65.4856 113.443 55.1863 113.443C44.8871 113.443 45.417 129.646 35.4966 129.498C25.1199 129.343 24.5915 113.443 16.1098 111.323M118.951 100.266C104.562 100.266 46.7046 100.266 31.4072 100.266M118.951 100.266V71.186C118.951 71.186 118.951 71.186 118.951 71.186C118.951 71.186 118.951 59.978 104.865 59.978M31.4072 100.266C16.1098 100.266 16.1098 111.323 16.1098 111.323M31.4072 100.266V73.4579M16.1098 111.323C16.1098 122.679 16.1098 140.403 16.1098 140.403M45.19 59.978C31.992 59.978 31.4305 70.4847 31.4081 71.1527C31.4073 71.1752 31.4072 71.1972 31.4072 71.2198V73.4579M45.19 59.978V14.2372M45.19 59.978C50.3937 59.978 58.1387 59.978 66.6973 59.978M104.865 59.978V30.2919M104.865 59.978C99.5867 59.978 91.7773 59.978 83.3578 59.978M31.4072 73.4579C38.6773 73.4579 38.3743 85.2717 45.0386 85.2717C47.3687 85.2717 49.0878 83.7543 50.6426 81.7805M118.496 72.852C113.65 72.852 111.226 85.5746 104.411 85.5746C97.595 85.5746 96.3833 72.852 88.9618 72.852C81.5403 72.852 82.6173 85.5746 75.0275 85.5746C67.4378 85.5746 67.606 72.8595 60.4874 72.8595C58.6207 72.8595 57.1289 73.7131 55.8237 74.9725M37.92 23.7791L34.4364 27.1113M34.4364 16.0547H29.8926M37.7685 8.33027L34.2849 4.99816M45.0386 5.30108V0.454379M52.9145 8.33027L56.0951 4.99816M55.9436 16.0547H60.6389M56.398 27.1113L52.9145 23.7791M96.9892 39.8339L93.8085 43.0145M93.8085 32.1094H89.4162M96.9892 24.385L93.5056 20.9014M104.562 21.2043V16.6605M112.287 24.385L115.77 20.9014M115.467 32.1094H120.011M115.922 42.7116L112.287 39.3795M66.6973 59.978C72.157 59.978 77.8863 59.978 83.3578 59.978M66.6973 59.978V50.6632M83.3578 59.978V50.6632M66.6973 41.3484V37.1094C66.6973 34.348 68.9358 32.1094 71.6973 32.1094H75.0275M66.6973 41.3484H83.3578M66.6973 41.3484V50.6632M83.3578 41.3484V37.1094C83.3578 34.348 81.1192 32.1094 78.3578 32.1094H75.0275M83.3578 41.3484V50.6632M66.6973 50.6632H83.3578M75.0275 32.1094L74.7299 19.8218M74.7299 19.8218C74.7488 19.8502 64.6226 19.4107 71.356 6.07386C72.9136 2.98862 77.2108 2.93641 78.7724 6.01967C85.2378 18.7856 74.7299 19.8218 74.7299 19.8218ZM45.6444 75.7298H45.7959M74.8761 75.7298H75.0275M104.108 75.7298H104.411M35.6481 118.593H35.7995M74.8761 118.593H75.0275M114.256 118.593H114.407" stroke="white" stroke-width="6" stroke-linecap="round" stroke-linejoin="round"/>
</g>
<defs>
<clipPath id="clip0_19_4">
<rect width="150" height="150" rx="5" fill="white"/>
</clipPath>
</defs>
</svg>
