<svg width="512" height="512" viewBox="0 0 512 512" fill="none" xmlns="http://www.w3.org/2000/svg">
<rect width="512" height="512" rx="15" fill="white"/>
<path d="M368.5 470.5C270.892 470.5 135.29 470.5 61.5 470.5M404 470.5H448.5M448.5 470.5H502.377C502.975 470.5 503.437 471.001 503.345 471.592C502.426 477.462 496.995 505 476 505C452.5 505 102 505 52.5 505C7.62405 505 7.95238 476.644 8.40533 471.347C8.4472 470.857 8.85178 470.5 9.34329 470.5C13.5087 470.5 32.8429 470.5 61.5 470.5M448.5 470.5V374.5M448.5 374.5C448.5 374.5 448.5 338 401 338M448.5 374.5C431 374.5 408.998 435.218 386 434.5C353.112 433.473 356 381.5 320.5 381.5C285 381.5 291 434.5 256 434.5C221 434.5 224.5 381.5 190.5 381.5C156.5 381.5 158.249 434.988 125.5 434.5C91.2443 433.99 89.5 381.5 61.5 374.5M401 338C353.5 338 162.5 338 112 338M401 338V242C401 242 401 242 401 242C401 242 401 205 354.5 205M112 338C61.5 338 61.5 374.5 61.5 374.5M112 338V249.5M61.5 374.5C61.5 411.99 61.5 470.5 61.5 470.5M157.5 205C112.589 205 112.002 241.853 112 242C112 242.004 112 242.002 112 242.007V249.5M157.5 205V54M157.5 205C174.678 205 200.246 205 228.5 205M354.5 205V107M354.5 205C337.075 205 311.295 205 283.5 205M112 249.5C136 249.5 135 288.5 157 288.5C164.692 288.5 170.367 283.491 175.5 276.975M399.5 247.5C383.5 247.5 375.5 289.5 353 289.5C330.5 289.5 326.5 247.5 302 247.5C277.5 247.5 281.055 289.5 256 289.5C230.945 289.5 231.5 247.525 208 247.525C201.838 247.525 196.913 250.342 192.604 254.5M133.5 85.5L122 96.5M122 60H107M133 34.5L121.5 23.5M157 24.5V8.5M183 34.5L193.5 23.5M193 60H208.5M194.5 96.5L183 85.5M328.5 138.5L318 149M318 113H303.5M328.5 87.5L317 76M353.5 77V62M379 87.5L390.5 76M389.5 113H404.5M391 148L379 137M228.5 205C246.524 205 265.437 205 283.5 205M228.5 205V174.25M283.5 205V174.25M228.5 143.5V114C228.5 113.448 228.948 113 229.5 113H256M228.5 143.5H283.5M228.5 143.5V174.25M283.5 143.5V114C283.5 113.448 283.052 113 282.5 113H256M283.5 143.5V174.25M228.5 174.25H283.5M256 113L255.017 72.4359M255.017 72.4359C255.088 72.5414 212.654 70.6867 255.172 8.20834C255.561 7.63688 256.452 7.62731 256.853 8.19069C299.413 68.0579 255.017 72.4359 255.017 72.4359ZM159 257H159.5M255.5 257H256M352 257H353M126 398.5H126.5M255.5 398.5H256M385.5 398.5H386" stroke="black" stroke-width="10" stroke-linecap="round" stroke-linejoin="round"/>
</svg>
